<svg width="14" height="15" viewBox="0 0 14 15" fill="none" xmlns="http://www.w3.org/2000/svg">
<path d="M13.3007 1.2107C12.9107 0.820703 12.2807 0.820703 11.8907 1.2107L7.0007 6.0907L2.1107 1.2007C1.7207 0.810703 1.0907 0.810703 0.700703 1.2007C0.310703 1.5907 0.310703 2.2207 0.700703 2.6107L5.5907 7.5007L0.700703 12.3907C0.310703 12.7807 0.310703 13.4107 0.700703 13.8007C1.0907 14.1907 1.7207 14.1907 2.1107 13.8007L7.0007 8.9107L11.8907 13.8007C12.2807 14.1907 12.9107 14.1907 13.3007 13.8007C13.6907 13.4107 13.6907 12.7807 13.3007 12.3907L8.4107 7.5007L13.3007 2.6107C13.6807 2.2307 13.6807 1.5907 13.3007 1.2107Z" fill="#3D3D3D" fill-opacity="0.7"/>
</svg>
