<svg width="14" height="18" viewBox="0 0 14 18" fill="none" xmlns="http://www.w3.org/2000/svg">
<path d="M2.4 7.5007H3.99V12.5007C3.99 13.0507 4.44 13.5007 4.99 13.5007H8.99C9.54 13.5007 9.99 13.0507 9.99 12.5007V7.5007H11.58C12.47 7.5007 12.92 6.4207 12.29 5.7907L7.7 1.2007C7.31 0.810703 6.68 0.810703 6.29 1.2007L1.7 5.7907C1.07 6.4207 1.51 7.5007 2.4 7.5007ZM0 16.5007C0 17.0507 0.45 17.5007 1 17.5007H13C13.55 17.5007 14 17.0507 14 16.5007C14 15.9507 13.55 15.5007 13 15.5007H1C0.45 15.5007 0 15.9507 0 16.5007Z" fill="white"/>
</svg>
